<?xml version="1.0" encoding="utf-8"?>
<!DOCTYPE svg PUBLIC "-//W3C//DTD SVG 1.1//EN" "http://www.w3.org/Graphics/SVG/1.1/DTD/svg11.dtd">
<svg version="1.1" xmlns="http://www.w3.org/2000/svg" width="4041px" height="2694px" viewBox="0 0 4041 2694" preserveAspectRatio="xMidYMid meet">
 <g fill="#000000">
  <path d="M422.90 2683.94 c-14.20 -3.20 -23.39 -7.60 -28.79 -13.80 -7 -7.80 -11 -20.59 -9.20 -28.99 1.60 -6.80 2 -6.80 27.39 -3.60 16 2.20 17.80 2.80 18.80 7.20 2 7.60 8.40 10.60 22.19 10.60 15.20 0 27.19 -4.40 32.79 -12.20 3.60 -5 12.40 -41.39 10.60 -43.59 -0.40 -0.40 -4.40 2.60 -9 6.80 -12.60 11.40 -24.19 15.80 -41.79 15.80 -16.60 0.20 -26.59 -3.80 -36.19 -14.20 -10 -10.60 -12.60 -18.20 -13.40 -39.59 -1.40 -32.99 7.80 -59.19 27.59 -79.18 28.19 -28.39 66.98 -30.99 88.58 -5.80 l7 8.40 1.40 -11.20 1.40 -11.20 18.80 0 c18.60 0 18.80 0 17.80 4.60 -0.60 2.40 -6 33.19 -12 68.38 -12.80 73.58 -17.20 93.58 -23.19 105.57 -9 18 -25.99 30.59 -47.39 35.19 -10.20 2.20 -45.19 2.60 -53.39 0.80z m56.39 -96.78 c15.40 -7.40 25.19 -23.19 28.39 -46.19 4.40 -31.39 -11 -50.19 -35.79 -43.59 -19.20 5.20 -32.79 26.79 -35.39 56.39 -1 11 -0.40 14.60 3.20 22.19 7.20 15 22.59 19.40 39.59 11.20z"/>
  <path d="M1584.61 2684.14 c-2.20 -0.60 -7.40 -2 -11.60 -3 -9.20 -2.40 -20.99 -12.60 -24.59 -21.19 -3.40 -7.60 -3.60 -21.79 -0.60 -23.59 1 -0.80 11.40 -0.20 22.99 1.20 15.40 1.80 20.79 3.20 20.79 5.20 0 1.60 2.20 5 5 7.60 4.20 4.20 6.60 5 17.80 5 25.99 0 34.99 -8 40.19 -34.99 4.20 -21.99 4.20 -22.39 -4 -15.20 -17.60 15.40 -39.79 21.19 -59.19 15.40 -13.40 -3.80 -22.79 -12.40 -29.59 -26.99 -4.20 -9.40 -5.20 -14 -5 -28.19 0 -39.79 18.20 -75.18 46.19 -90.58 26.59 -14.20 58.39 -9.80 71.78 10.20 5.20 7.40 5.80 7 7.60 -6 l1.40 -9.60 18.80 0 c16.80 0 18.60 0.40 17.80 3.60 -0.40 1.80 -6.60 36.79 -13.80 77.38 -7.20 40.79 -14.60 78.58 -16.20 83.98 -7.40 22.79 -20.39 37.39 -39.99 44.99 -9.60 3.80 -16.60 4.80 -36.79 5.20 -13.80 0.40 -26.79 0 -28.99 -0.40z m61.58 -100.18 c12.40 -9 21.39 -27.19 22.79 -46.99 1.40 -18 0.20 -23.19 -6.60 -31.39 -16.40 -19.40 -47.79 -8.20 -58.79 20.99 -6.20 16.60 -7.60 39.79 -3 49.59 7.80 16.60 28.39 20 45.59 7.80z"/>
  <path d="M2722.33 2682.34 c-5.40 -1.60 -10.60 -2.80 -11.40 -3 -3 -0.20 -14 -10.80 -16.80 -16.40 -3 -5.60 -4.40 -24.59 -2 -26.99 0.60 -0.60 11 0 23.19 1.40 20.99 2.40 21.99 2.80 21.99 7.20 0 8.20 7.80 11.40 25.79 10.40 16.80 -1 23.59 -4 29.19 -12.40 3.20 -4.60 11.60 -41.39 10 -42.99 -0.60 -0.40 -4.60 2.60 -9.20 6.80 -12.80 11.40 -24.19 15.80 -41.79 15.80 -17.60 0 -28.19 -4.40 -37.79 -16.20 -8.60 -10.40 -12.20 -22.59 -12.20 -41.59 0 -49.79 27.59 -89.38 67.78 -96.98 19.80 -3.80 36.59 1.80 48.79 16 l7 8.40 1.40 -11.20 1.40 -11.20 19 0 19 0 -1.20 5.60 c-0.60 3 -6.60 36.39 -13.20 74.38 -13.60 76.78 -15.80 85.98 -24.39 102.37 -8.60 16.40 -23.79 26.79 -45.19 31.39 -14.40 3 -47.19 2.60 -59.39 -0.80z m67.58 -98.18 c15.60 -11 23.99 -30.39 24.19 -54.79 0 -16.60 -5.20 -26.19 -16.80 -30.79 -9.60 -3.80 -10.60 -3.80 -20.59 -1 -16.60 4.60 -28.39 21.19 -33.39 47.19 -4.20 21.39 1.60 39.19 14.80 44.79 7.80 3.40 22.99 0.80 31.79 -5.40z"/>
  <path d="M3890.04 2684.14 c-2.20 -0.60 -7.40 -2 -11.60 -3 -15.20 -4 -27.39 -20 -27.39 -35.79 0 -10.40 1.60 -10.80 24.79 -8 15.60 1.80 21.19 3.40 21.19 5.40 0 1.60 2.20 5 5 7.60 4.20 4.40 6.60 5 18.40 5 16.80 0 28.99 -5.20 33.59 -13.80 3 -6.20 11.40 -42.19 9.60 -42.19 -0.60 0 -4.60 3 -9 6.80 -24.19 20.79 -57.79 22.39 -75.98 3.80 -11.80 -12.20 -16.40 -24.59 -16.40 -44.59 0.20 -32.19 11.20 -60.59 30.79 -78.58 15 -14 29.59 -19.80 48.99 -20 17 0 27.39 4.60 37.59 16.80 l6.80 8.40 1.40 -11.20 1.40 -11.40 19 0 c18.60 0 18.80 0 17.80 4.60 -0.60 2.40 -6.80 37.39 -14 77.58 -7 40.39 -14.40 77.78 -16.20 82.98 -7.40 22.79 -20.39 37.39 -39.99 44.79 -9.60 3.80 -16.60 4.80 -36.79 5.20 -13.80 0.40 -26.79 0 -28.99 -0.40z m56.39 -96.98 c4.80 -2.20 11.40 -7.40 14.60 -11.40 13.40 -16.20 18.60 -52.99 9.40 -66.58 -9.60 -14.40 -25.19 -17 -42.39 -7 -26.79 15.80 -34.19 75.98 -10.60 86.18 9.40 4 19 3.60 28.99 -1.20z"/>
  <path d="M887.18 2625.35 c-16.40 -2.20 -29.19 -9.20 -36.79 -20.79 -8.20 -11.80 -10.60 -20.59 -10.60 -37.19 0.20 -61.58 45.99 -108.57 97.78 -100.18 36.59 5.80 51.59 29.79 47.19 74.98 l-1.40 15.20 -51.79 0 -51.79 0 0 10.60 c0 17.80 11 29.39 27.99 29.39 9 0 20.99 -6.80 25.99 -15 3.80 -6 5.40 -7 9.80 -6.20 2.80 0.60 11.20 2.20 18.60 3.40 9.20 1.40 13.20 3 12.20 4.60 -17.80 31.19 -49.39 46.19 -87.18 41.19z m60.59 -101.37 c0 -33.39 -42.39 -37.79 -57.79 -6.20 -7.60 16 -8.20 15.60 26.79 15.60 l30.99 0 0 -9.40z"/>
  <path d="M1053.74 2625.35 c-20.79 -2.80 -32.19 -10.20 -41.19 -26.39 -5.40 -9.80 -5.80 -12.20 -5.80 -31.59 0 -12 1.20 -25.19 2.80 -30.99 13.20 -46.39 52.99 -75.78 93.98 -69.18 16 2.60 24.39 6.80 33.99 17.20 12.60 13.60 16.40 32.59 13 62.58 l-1.40 10.40 -51.59 0 -51.79 0 0 9.60 c0 12.40 5.20 22.59 14 26.79 14.20 7.20 30.59 2.60 39.59 -10.80 4.20 -6.40 6 -7.60 10.20 -6.80 2.80 0.60 11.20 2.20 18.60 3.40 9.20 1.40 13.20 3 12.20 4.60 -17.60 30.79 -49.99 46.19 -86.58 41.19z m59.59 -103.97 c-1 -13.40 -4.60 -18.80 -15.40 -23.39 -14.40 -6 -33.99 3.40 -41.79 20.20 -7.40 15.80 -8.40 15.20 26.79 15.20 l31.19 0 -0.80 -12z"/>
  <path d="M1849.54 2625.55 c-24.59 -5 -26.59 -15.80 -15 -80.78 3.80 -21.59 7 -40.19 7 -41.39 0 -1 -4 -2 -9 -2 -5 0 -9 -0.20 -9 -0.60 0 -1.80 4.40 -24.79 5.20 -27.79 0.80 -2.80 3.20 -3.60 9.80 -3.60 9.80 0 8.80 1.60 13 -20.20 l2.20 -11 21.59 -11.40 21.59 -11.40 -4.60 26.39 c-2.60 14.60 -4.80 26.79 -4.80 27.19 0 0.20 6.40 0.40 14 0.40 7.80 0 14 0.40 14 1 0 0.80 -3.20 17 -5.20 26.59 -0.80 4 -2 4.40 -14.60 4.40 l-13.80 0 -3 16.60 c-14.40 77.98 -14.40 76.58 4 74.78 l10.60 -1.20 0 8.60 c0 16.80 -1.80 20.99 -9.80 22.99 -11.20 2.80 -26.59 3.80 -34.19 2.40z"/>
  <path d="M1974.31 2625.35 c-20.99 -3 -38.79 -14.60 -47.39 -30.99 -5 -9.80 -7 -36.99 -3.60 -52.99 10.20 -48.79 57.19 -81.58 105.57 -73.98 31.19 5 50.19 25.79 52.19 56.79 3.80 59.99 -48.59 109.77 -106.77 101.17z m37.39 -36.19 c26.79 -13.40 38.79 -62.98 20 -81.98 -12.80 -12.60 -35.99 -11.20 -50.79 3.20 -8.60 8.40 -13 16.20 -16.60 29.99 -10.60 39.59 14.40 65.38 47.39 48.79z"/>
  <path d="M2565.37 2626.35 c-1.60 -0.40 -6.40 -1.20 -10.60 -2 -10.40 -1.60 -22.79 -13 -25.59 -23.59 -5.80 -21.99 7 -46.79 29.79 -57.39 5.20 -2.40 21.59 -7 36.39 -10.20 35.99 -7.60 39.39 -8.80 40.39 -15.40 2 -15.40 -4.60 -21.39 -23.39 -21.39 -14.20 0.20 -23.19 4.40 -28.39 13.20 -4 6.60 -2.80 6.60 -27.99 1.60 l-10.60 -2 3.20 -6.20 c5.60 -10.60 20.59 -24.99 30.79 -29.39 14 -6 35.99 -8.60 55.19 -6.60 18.40 2.20 28.79 6.40 35.79 14.80 7 8.20 6.60 24.39 -1.20 65.98 -7.20 38.79 -9 57.99 -6.20 68.18 l2 7.40 -19.60 0 -19.60 0 -1.40 -8 c-0.80 -4.40 -1.80 -8 -2.40 -8 -0.60 0 -3.60 1.80 -6.60 4 -13.80 9.80 -38.79 17.20 -49.99 15z m34.19 -29.39 c13.20 -3.80 22.79 -13.80 26.59 -27.19 4.60 -16.60 4.40 -20.79 -1.20 -19.40 -2.60 0.60 -13.60 3.20 -24.59 5.80 -16.60 4 -20.79 6 -25.39 11 -8 9 -7.80 20 0.60 26.99 6.80 5.80 12.40 6.40 23.99 2.80z"/>
  <path d="M3193.01 2625.35 c-14.40 -1.80 -30.99 -10.80 -37.19 -20.20 -14.60 -21.99 -13.60 -60.39 2.40 -91.98 19.60 -38.39 65.78 -56.79 103.17 -41.19 22.19 9.20 32.79 35.59 28.79 72.18 l-1.40 13.20 -51.79 0 -51.79 0 0 9.60 c0 12.20 5.40 22.39 14.20 26.79 13.80 7.20 30.39 2.60 39.19 -10.80 2.80 -4.20 5.60 -7.60 6 -7.60 0.60 0 9 1.40 18.80 3.20 17 3.20 17.60 3.40 15.40 7.60 -14.80 28.19 -49.39 43.99 -85.78 39.19z m59.79 -103.97 c-1 -13.60 -5.80 -20.39 -17 -23.99 -17.40 -5.80 -38.39 8.80 -43.59 30.59 l-1.40 5.40 31.39 0 31.39 0 -0.80 -12z"/>
  <path d="M3358.57 2625.15 c-37.79 -5.60 -54.19 -36.19 -44.39 -82.58 8.40 -39.99 35.59 -68.78 70.38 -74.98 12.60 -2.40 29.59 -0.80 41.19 3.60 23.79 9.20 34.59 34.99 30.59 72.98 l-1.60 13.20 -51.79 0 -51.79 0 0 9.60 c0 30.79 36.39 41.79 53.39 16 2.80 -4.20 5.60 -7.60 6 -7.60 0.60 0 9 1.40 18.80 3.20 20 3.80 20 3.40 6.60 20 -16.80 20.79 -46.59 31.19 -77.38 26.59z m60.59 -102.57 c0 -8.80 -1 -12 -5 -17 -14.20 -16.80 -40.59 -10.40 -51.99 12.40 -2.80 5.60 -5 11.40 -5 12.80 0 2 6.80 2.60 30.99 2.60 l30.99 0 0 -10.80z"/>
  <path d="M12 2620.55 c0 -1.60 8.20 -48.79 18 -104.97 9.80 -56.39 18 -102.77 18 -103.17 0 -0.60 35.59 -1 78.98 -1 62.18 0 78.78 0.60 77.98 2.60 -0.40 1.20 -1.80 9 -3 17 l-2.40 14.40 -57.59 0 -57.59 0 -3.20 18.60 c-1.80 10 -3.80 20.79 -4.40 23.99 l-1.20 5.40 53.19 0 53.19 0 0 4.60 c-0.20 2.40 -1.20 10.20 -2.60 17.40 l-2.40 13 -53.99 1 -53.79 1 -4.40 24.99 c-2.60 13.80 -4.60 26.59 -4.60 28.59 -0.20 3.20 3.80 3.40 58.79 3.40 32.39 0 58.99 0.80 58.99 1.60 0 2 -3.60 23.19 -5 29.99 l-1 4.40 -79.98 0 c-67.58 0 -79.98 -0.40 -79.98 -2.80z"/>
  <path d="M209.95 2621.35 c0 -1 5.80 -34.99 13 -75.38 7.20 -40.39 13 -74.18 13 -74.98 0 -1 8.40 -1.60 18.80 -1.60 l18.80 0 -1.80 7.60 c-3.40 14.40 -2.60 15.40 6.40 7.60 27.79 -23.59 69.78 -24.39 85.18 -1.20 6.80 10 6 26.79 -4.40 85.38 -5 27.79 -9 51.39 -9 52.59 0 1.20 -7.80 2 -20 2 -11 0 -20 -0.60 -20 -1.40 0 -1 3.60 -21.79 8 -46.59 11.40 -63.98 10.80 -73.18 -5.60 -78.18 -17.40 -5.20 -38.99 9 -44.99 29.39 -1.60 5.80 -6.40 29.79 -10.80 53.59 l-7.60 43.19 -19.40 0 c-11.20 0 -19.60 -0.80 -19.60 -2z"/>
  <path d="M576.26 2613.15 c1 -5.60 7 -39.79 13.40 -76.18 6.40 -36.19 12.20 -66.18 12.60 -66.78 0.60 -0.60 9.60 -0.60 20 -0.40 l18.80 0.60 -12.60 71.98 c-6.80 39.59 -13 73.98 -13.60 76.58 -1 4.20 -2 4.40 -20.79 4.40 l-19.60 0 1.80 -10.20z"/>
  <path d="M657.84 2620.75 c0 -1.40 5.80 -35.59 13 -75.98 7.20 -40.39 13 -73.98 13 -74.38 0 -0.60 8.20 -1 18.20 -1 l18.20 0 -1.40 11.40 -1.40 11.20 8.60 -7.20 c27.19 -23.39 68.18 -24.59 84.38 -2.80 7.60 10 6.80 25.39 -3.80 86.38 l-9.60 54.99 -19.60 0 c-12.20 0 -19.60 -0.80 -19.60 -2 0 -1.20 3.60 -22.39 8 -46.99 11.40 -63.58 10.80 -72.18 -5.60 -77.18 -17.60 -5.20 -38.79 8.80 -45.19 30.19 -1.80 6 -6.80 30.19 -10.80 53.59 l-7.40 42.39 -19.40 0 c-14.60 0 -19.60 -0.60 -19.60 -2.60z"/>
  <path d="M1170.51 2619.95 c0.60 -2 6.40 -34.99 13.20 -73.58 6.80 -38.39 12.60 -71.58 13.20 -73.38 1 -3 3.60 -3.60 19.20 -3.60 l18 0 -1.20 7.60 c-0.80 4 -2 9.20 -2.60 11.40 -0.60 2.60 2.60 0.60 9.60 -6.20 6 -5.80 13 -11.40 15.80 -13 7 -3.60 25.79 -3 33.39 0.80 l6.40 3.40 -8.20 15.60 c-4.60 8.40 -8.80 16.20 -9.60 17 -0.80 0.80 -4 0.20 -7.20 -1.60 -17.60 -9.20 -35.99 3.80 -43.59 30.99 -1.60 6 -5.80 26.39 -9.20 44.99 -3.40 18.80 -6.60 35.99 -7.20 38.59 -0.80 4.20 -1.80 4.40 -20.99 4.40 -18.20 0 -20 -0.40 -19 -3.40z"/>
  <path d="M1288.48 2619.95 c0.60 -2 6.40 -34.99 13.20 -73.58 6.80 -38.39 12.60 -71.58 13.20 -73.38 1 -3.20 3.80 -3.60 20.59 -3.60 l19.40 0 -13.60 76.58 c-7.40 41.99 -13.60 76.58 -13.60 76.98 0 0.20 -9 0.40 -20.20 0.40 -18.20 0 -20 -0.40 -19 -3.40z"/>
  <path d="M1371.66 2620.15 c0 -3 21.99 -130.37 25.19 -145.16 l1.20 -5.60 17.80 0 c19.80 0 19.40 -0.40 16 14.60 -1 4 -1.40 7.40 -0.80 7.40 0.60 0 5 -3.60 10 -8 24.59 -21.59 67.98 -22.39 82.98 -1.60 7.60 10.80 7 22.99 -3.60 84.98 l-9.80 56.59 -19.40 0 c-14.60 0 -19.60 -0.60 -19.60 -2.60 0 -1.40 3.60 -22.79 8 -47.39 11.20 -62.98 10.60 -70.78 -5 -75.98 -8.40 -2.80 -17.20 -1.20 -28.39 5.20 -14.60 8.40 -19 21.59 -32.19 98.78 l-3.60 20.99 -19.40 0.60 c-17.20 0.40 -19.40 0.20 -19.40 -2.80z"/>
  <path d="M2183.46 2620.35 c0 -1.60 8.20 -48.79 18 -105.17 10 -56.19 18 -102.57 18 -102.97 0 -0.40 9.60 -0.80 21.19 -0.80 l21.19 0 -1 5.60 c-0.60 3 -9 50.59 -18.80 105.77 l-17.60 100.58 -20.39 0 c-16.80 0 -20.59 -0.60 -20.59 -3z"/>
  <path d="M2264.04 2617.95 c0.60 -3.20 6.80 -37.79 13.60 -76.98 l12.60 -71.58 18.40 0 18.40 0 -1.80 7.60 c-3 12.60 -2.20 13.20 8 5.60 15.80 -11.60 27.19 -15.80 43.19 -15.80 9 0 16.20 1.20 20.20 3.20 6.40 3.40 16.80 14.20 16.80 17.60 0 3.20 3.20 2 11.20 -4.40 20.79 -16.80 48.59 -21.59 66.98 -11.60 12.80 7 18.40 18.60 17.20 35.79 -1 11.20 -11.40 74.18 -17.60 105.57 l-2 10.40 -20 0 c-18.20 0 -20 -0.40 -19 -3.40 2.80 -9.40 17.20 -97.18 17.20 -104.37 0 -11.20 -2.60 -15.40 -10.80 -18.20 -15.60 -5 -33.39 6.40 -40.79 26.39 -2.20 5.80 -7.40 30.59 -11.60 55.19 l-7.80 44.39 -19.40 0 c-14.60 0 -19.60 -0.60 -19.60 -2.60 0 -1.40 3.60 -23.19 8.20 -48.39 10 -55.99 10.60 -65.18 4.20 -71.38 -9.80 -10 -32.79 -3.60 -42.59 12 -6.20 10 -8.60 19.60 -18 72.98 l-6.40 37.39 -20 0 -19.80 0 1 -5.40z"/>
  <path d="M2881.29 2620.15 c0 -3 21.99 -130.37 25.19 -145.16 l1.20 -5.60 19.80 0 19.80 0 -1.20 5.60 c-0.60 3 -6.60 37.39 -13.60 76.38 l-12.40 70.98 -19.40 0.60 c-17.20 0.40 -19.40 0.20 -19.40 -2.80z"/>
  <path d="M2963.27 2621.35 c0 -1 5.80 -34.99 13 -75.38 7.20 -40.39 13 -74.18 13 -74.98 0 -1 8.40 -1.60 18.80 -1.60 l18.80 0 -1.80 7.60 c-3.40 14.40 -2.60 15.40 6.40 7.60 27.79 -23.59 69.78 -24.39 85.18 -1.20 6.80 10 6 25.39 -4.80 86.58 l-9.40 53.39 -19.60 0 c-10.80 0 -19.60 -0.60 -19.60 -1.40 0 -1 3.60 -21.79 8 -46.59 11.40 -63.98 10.80 -73.18 -5.60 -78.18 -17.40 -5.20 -38.99 9 -44.99 29.39 -1.60 5.80 -6.40 29.79 -10.80 53.59 l-7.60 43.19 -19.40 0 c-11.20 0 -19.60 -0.80 -19.60 -2z"/>
  <path d="M3476.34 2619.95 c0.40 -2 6.20 -34.59 12.80 -72.58 6.60 -37.99 12.60 -70.98 13 -73.38 1 -4.40 2 -4.60 19 -4.60 19.80 0 19 -0.60 16.20 13.80 l-1.80 8.60 10.40 -10 c5.60 -5.40 12.40 -11 15.20 -12.60 7.20 -3.60 25.79 -3 33.59 1 l6.60 3.40 -9.20 16.40 c-5.20 9.60 -10 16 -11.40 15.60 -18.20 -5.80 -23.59 -5.20 -33.19 2.80 -10.80 9.20 -17 28.59 -26.19 81.98 -2.40 13.20 -4.60 25.99 -5.20 28.59 -1 4.20 -2 4.40 -20.79 4.40 -17.80 0 -19.80 -0.40 -19 -3.40z"/>
  <path d="M3595.51 2613.15 c1 -5.60 7 -39.79 13.40 -76.18 6.40 -36.19 12.20 -66.18 12.60 -66.78 0.60 -0.60 9.60 -0.60 20 -0.40 l18.80 0.60 -13.40 75.98 c-7.40 41.79 -13.60 76.18 -13.60 76.58 -0.20 0.20 -9 0.40 -20 0.40 l-19.60 0 1.80 -10.20z"/>
  <path d="M3677.09 2620.95 c0 -1.60 5.80 -35.79 13 -76.18 7.20 -40.39 13 -73.98 13 -74.38 0 -0.60 8.20 -1 18.20 -1 l18 0 -1.40 11.40 -1.40 11.40 8.60 -7.40 c27.39 -23.39 68.38 -24.79 84.58 -3 7.60 10.20 7 24.99 -3.80 85.98 l-9.80 55.59 -19.40 0 c-10.80 0 -19.60 -0.80 -19.60 -1.80 0 -1.20 3.60 -22.39 8 -47.39 11.20 -64.18 10.60 -71.98 -5.60 -76.98 -18 -5.40 -38.99 9 -45.39 31.19 -2 6.40 -6.80 30.19 -10.80 52.79 l-7.20 41.19 -19.60 0.60 c-15 0.40 -19.40 0 -19.40 -2z"/>
  <path d="M605.85 2445.99 c0 -1 1.40 -8.60 3 -17.20 1.60 -8.60 3 -16.20 3 -16.60 0 -0.40 9 -0.80 20.20 -0.80 18.20 0 20 0.40 19 3.60 -0.40 1.80 -2 10 -3.40 18 l-2.40 14.40 -19.80 0 c-10.80 0 -19.60 -0.60 -19.60 -1.40z"/>
  <path d="M1319.67 2445.79 c0 -2 3.60 -23.19 5 -29.79 1 -4.40 2 -4.60 20.59 -4.60 l19.80 0 -3 18 -3 18 -19.60 0 c-11 0 -19.80 -0.80 -19.80 -1.60z"/>
  <path d="M2912.08 2442 c0.60 -3.20 2.20 -11.20 3.40 -18 l2.40 -12.60 19.80 0 c19.80 0 20 0 19 4.60 -0.60 2.40 -2.20 10.40 -3.40 18 l-2.40 13.40 -20 0 -20 0 1.20 -5.40z"/>
  <path d="M3625.10 2445.99 c0 -1 1.40 -8.60 3 -17.20 1.60 -8.60 3 -16.20 3 -16.60 0 -0.40 9 -0.80 20.20 -0.80 18.20 0 20 0.40 19 3.60 -0.40 1.80 -2 10 -3.40 18 l-2.40 14.40 -19.80 0 c-10.80 0 -19.60 -0.60 -19.60 -1.40z"/>
  <path d="M1878.54 2276.04 c-30.39 -2.80 -72.78 -14.40 -97.98 -26.99 -54.19 -27.19 -95.58 -77.18 -117.17 -141.56 -23.79 -71.58 -23.79 -172.36 0.40 -244.54 13.40 -40.59 32.99 -72.78 61.78 -101.57 49.79 -49.99 103.97 -71.98 177.96 -72.18 51.19 0 86.58 7.40 124.97 26.39 13.20 6.40 29.99 16.40 37.39 21.99 19.20 14.60 46.99 44.99 58.19 63.38 30.79 51.39 47.39 120.77 47.39 198.75 l0 25.79 -186.95 0 -186.95 0 0 7.80 c0 4.20 1.40 15.60 3 25.19 11.20 63.78 53.39 104.77 111.97 108.37 20 1.20 38.99 -2.20 53.39 -9.60 18.80 -9.60 36.39 -31.79 45.59 -57.19 3 -8.40 5.60 -12.60 7.80 -12.60 5.20 0 142.36 23.59 143.56 24.59 1.60 1.80 -15.20 38.19 -25.39 54.59 -38.19 62.18 -97.98 99.18 -174.96 108.57 -16.60 2 -65.18 2.40 -83.98 0.80z m145.76 -353.91 c-1.80 -20.79 -8.20 -45.79 -15.20 -60.39 -8.20 -17 -31.99 -41.39 -47.59 -48.79 -25.99 -12.60 -58.79 -14.60 -84.78 -5.60 -44.19 15.60 -71.78 55.99 -76.38 111.37 l-1.40 16.80 113.37 0 113.37 0 -1.40 -13.40z"/>
  <path d="M2716.73 2275.44 c-16.20 -2.80 -37.59 -10 -51.99 -17.40 -35.99 -19 -52.59 -50.59 -57.39 -109.97 -1.20 -14.20 -2 -91.38 -2 -176.76 l0 -151.76 -33.99 0 -33.99 0 0 -58.99 0 -58.99 33.99 0 33.99 0 0 -56.59 0 -56.59 72.78 -42.39 c40.19 -23.39 73.38 -42.39 73.98 -42.39 0.80 0 1.20 44.59 1.20 98.98 l0 98.98 50.99 0 50.99 0 0 58.99 0 58.99 -51.19 0 -51.19 0 0.80 152.56 c0.80 169.16 0 160.36 14.20 172.76 7.80 6.80 18.20 10.60 29.39 10.60 7.80 0 34.19 -6 47.79 -11 4.80 -1.60 9.20 -2.60 9.60 -2.20 1 0.80 12.60 101.77 12.60 109.37 0 5 -1.20 5.80 -19.40 11.40 -22.59 7 -33.59 9.60 -55.19 12.40 -18 2.40 -61.78 2.20 -75.98 0z"/>
  <path d="M779.81 1875.54 l0 -389.90 117.37 0.40 117.57 0.60 70.38 264.73 c38.59 145.36 70.78 264.93 71.18 265.33 1.20 1.20 -5.60 26.59 74.18 -277.13 l66.58 -252.94 117.17 -0.60 117.37 -0.40 0 389.90 0 389.90 -71.98 0 -71.98 0 0 -306.32 c0 -168.56 -0.80 -305.52 -1.60 -304.32 -1.40 1.40 -154.36 605.65 -154.36 609.45 0 0.60 -33.99 1.20 -75.58 1.20 l-75.38 0 -11.40 -45.39 c-6.40 -25.19 -41.19 -163.36 -77.38 -307.52 l-65.98 -261.94 -0.20 307.52 0 307.32 -72.98 0 -72.98 0 0 -389.90z"/>
  <path d="M2295.43 1983.51 l0 -281.93 73.98 0 73.98 0 0 281.93 0 281.93 -73.98 0 -73.98 0 0 -281.93z"/>
  <path d="M3167.22 2101.48 l0 -163.96 -123.57 -195.35 c-67.98 -107.57 -132.37 -209.35 -142.96 -226.14 l-19.40 -30.39 91.78 0 91.58 0 91.38 153.96 c50.39 84.78 92.18 153.96 92.98 153.96 0.60 0 41.59 -69.38 90.78 -153.96 l89.58 -153.96 90.18 0 89.98 0 -2.80 4.40 c-1.60 2.60 -66.18 104.17 -143.36 225.94 l-140.17 221.55 0 163.96 0 163.96 -77.98 0 -77.98 0 0 -163.96z"/>
  <path d="M2295.43 1554.62 l0 -68.98 73.98 0 73.98 0 0 68.98 0 68.98 -73.98 0 -73.98 0 0 -68.98z"/>
 </g>
 <g fill="#eb080a">
  <path d="M1459.64 1319.47 c-68.58 -8.20 -110.97 -24.99 -143.36 -56.39 l-12.20 -12 -14 1.40 c-12.80 1.20 -14.20 1 -17 -2.80 -2.80 -4 -3.40 -4 -46.59 -2 -23.99 1.20 -48.59 2.60 -54.19 3.20 l-10.60 1 0 25.99 0 25.79 -15.20 0 c-13.40 0 -15.20 0.40 -16.20 4 -1 4 -2.80 4 -78.78 4 l-77.78 0 0 -22.99 0 -22.99 -11.80 0 c-10 0 -11.80 -0.60 -12.80 -3.80 -1 -3.80 -3 -3.80 -61.58 -2.80 l-60.78 1 -11 7.60 c-11.80 8 -51.79 28.59 -64.98 33.39 -4.40 1.60 -22.39 4.60 -39.99 6.80 -28.99 3.40 -47.79 3.80 -206.35 3.80 l-174.56 0 0 -39.59 0 -39.79 -11.40 -1.80 c-9.80 -1.60 -11.60 -2.40 -12.60 -6.80 -1 -4.40 -2.80 -5.20 -19.40 -8.40 -10 -1.80 -34.79 -7.40 -54.99 -12.40 -118.17 -29.19 -190.75 -68.38 -216.15 -116.77 -6.80 -13 -7.80 -16.60 -8.80 -32.99 -1.20 -20.79 1.80 -36.39 10.60 -53.79 30.79 -60.98 117.57 -128.17 252.94 -195.75 l35.79 -18 0 -26.79 0 -26.99 15 0 c11.60 0 15.40 -0.80 16.20 -3 0.80 -1.60 2 -3 3 -3 1 0 1.80 93.78 1.80 223.74 l0 223.54 45.39 7.40 c125.57 20 220.15 27.59 435.09 34.39 34.99 1.20 37.39 1.40 37.39 5 0 3.60 2.20 3.80 44.99 3.80 l44.99 0 0 -245.94 0 -245.94 15 0 c11.60 0 15.40 -0.80 16.20 -3 0.80 -1.60 2 -3 3 -3 1 0 1.80 102.57 1.80 245.14 l0 244.94 25.59 -1 c14 -0.60 47.39 -1.60 74.38 -2.20 26.99 -0.60 54.99 -1.60 62.58 -2.40 13 -1 13.40 -1 13.40 3.40 l0 4.60 43.59 -1.60 c23.79 -0.80 43.99 -1.80 44.79 -2.40 0.80 -0.40 0.20 -4.20 -1.60 -8.20 -7.40 -17.40 -13.20 -36.59 -16.60 -56.79 -2 -11.80 -3.20 -21.99 -2.60 -22.59 0.60 -0.60 7.20 -1 14.40 -1 8.80 0 14.20 -1 15.80 -2.60 1.20 -1.60 1.60 -3.40 0.80 -4 -0.60 -0.80 0.20 -1.40 1.80 -1.40 2.20 0 3.60 4 5.40 14.60 2.80 16.40 11.20 43.19 19.20 59.99 5.20 11 5.80 11.40 13.40 11.40 8 0 21.19 -0.80 124.17 -8.20 55.99 -4 59.99 -4 67.98 -0.80 7.40 3 11.60 3 41.39 0.80 18.20 -1.20 34.59 -3.20 36.39 -4.20 2 -1 6.20 -6.40 9.60 -12.20 5.20 -9 6 -12.40 6 -25.39 0 -13 -0.80 -16.40 -5.80 -25.19 -14.40 -24.79 -37.99 -35.59 -122.17 -55.79 -89.58 -21.39 -149.36 -51.59 -177.56 -89.98 -24.39 -33.19 -34.39 -73.58 -27.59 -112.77 9.40 -53.59 38.99 -92.78 90.38 -119.17 7.60 -3.80 14.40 -7 15.40 -7 0.80 0 1.40 2 1.40 4.60 0 3 -2.20 5.80 -5.80 8 -10.20 6 -27.99 23.39 -37.19 36.39 -32.79 45.99 -38.79 97.78 -16.80 144.96 7.20 15.60 17.40 29.19 32.19 43.59 31.39 30.39 85.18 54.79 161.56 73.38 72.38 17.40 98.98 27.59 112.57 42.79 11.80 13.20 15.40 22.59 15.40 41.39 0 17.20 -2.20 26.39 -8.60 35.59 l-4 5.80 16.80 -1.40 c18.80 -1.40 105.37 -10.20 131.77 -13.20 24.39 -2.80 27.59 -2.60 27.19 1.60 -0.20 2.40 1.20 3.20 4.80 3 42.79 -4 60.78 -6.60 62.18 -9 1 -1.40 8.60 -20.99 17 -43.59 8.40 -22.59 17.20 -46.39 19.80 -52.99 2.60 -6.60 9.20 -24.19 14.80 -38.99 5.40 -14.80 32.59 -86.78 59.99 -159.96 l49.99 -132.97 12.60 -0.60 c6.80 -0.40 13.60 -1.60 15 -2.80 6.80 -5.60 0.40 14.60 -28.59 92.18 -17.20 45.79 -31.99 84.98 -32.99 87.18 -0.80 2.20 -11.80 30.99 -23.99 63.98 -12.40 32.99 -32.39 86.58 -44.79 119.17 l-22.19 58.99 11 -1.40 c6.20 -0.80 22.39 -3 36.19 -4.60 131.97 -16.80 275.73 -37.79 392.90 -57.39 46.99 -7.80 47.79 -8 50.99 -4.20 3.40 4.40 6.60 4.20 50.99 -4.60 l21.99 -4.20 0.20 -44.79 c0 -24.99 1.20 -52.19 2.60 -60.98 13 -83.78 48.39 -147.96 104.97 -190.35 14.80 -11 37.39 -24.39 49.79 -29.59 7.20 -3 7.40 -3 7.40 1.60 0 3.40 -3.20 6.60 -12.80 13 -30.99 20.39 -62.38 56.39 -81.78 94.18 -25.99 50.19 -37.19 104.37 -34.79 168.96 0.60 17.40 1.40 31.99 1.80 32.19 0.80 0.80 87.18 -15.40 134.37 -24.99 33.99 -6.80 39.19 -7.20 39.19 -3 0 4.80 -3.80 5.40 83.98 -13 11.60 -2.40 21.59 -4.80 22.59 -5.40 0.80 -0.40 1.40 -6.60 1.40 -13.80 l0 -12.80 15 0 c8.60 0 15 -0.80 15 -2 0 -1 1 -2 2 -2 1.20 0 2 3.20 2 7 0 3.80 0.40 7 1 7 1.60 0 81.18 -18 93.18 -20.99 6.40 -1.80 20.39 -3 31.79 -3 18.20 0 25.79 -1.20 65.78 -11.20 53.99 -13.20 139.57 -35.19 159.16 -40.79 145.76 -41.39 264.13 -77.38 270.53 -82.38 1.80 -1.60 2.40 -14.80 2.40 -53.79 l0 -51.79 14.80 0 c11.20 0 15 -0.80 16 -3 0.60 -1.60 2 -3 3.20 -3 1.20 0 2 15.40 2 44.79 l0 44.59 29.99 -10.60 c38.19 -13.60 109.57 -40.99 132.97 -50.99 17.80 -7.80 18 -7.80 21.39 -3.80 3.20 4 3.60 3.80 30.99 -8.20 177.96 -78.18 287.93 -157.96 312.72 -226.94 3 -8.40 4.40 -16.80 4.40 -28.79 0.20 -15.80 -0.40 -18.20 -7.40 -32.99 -50.39 -104.77 -325.72 -166.76 -775.01 -174.36 l-78.98 -1.20 -27.99 35.59 c-15.40 19.60 -28.59 36.59 -29.39 37.79 -1 1.40 -10.40 0.60 -28.99 -2.40 -15.20 -2.40 -35.79 -5.40 -45.79 -6.60 l-18.40 -2.60 -11.40 -28.59 c-6.20 -15.80 -12 -28.99 -12.80 -29.39 -4 -2.60 -268.13 10.20 -347.11 16.80 -13.20 1 -37.39 2.80 -53.99 4 -16.40 1 -44.79 3.40 -62.98 5 -18.20 1.80 -52.79 4.80 -76.98 7.20 -47.79 4.20 -70.78 6.60 -155.96 15.80 -92.98 10 -151.76 17.40 -274.93 33.99 -45.59 6.20 -168.96 24.39 -189.95 27.99 -6 1 -22.59 3.60 -36.99 6 -34.79 5.40 -62.78 10.20 -143.96 23.99 -34.59 6 -49.59 8.60 -97.98 17.80 -40.79 7.60 -105.77 20.39 -145.96 28.59 -21.99 4.40 -42.19 8.60 -44.99 9 -2.80 0.40 -12.60 2.60 -21.99 4.60 -9.40 2.20 -25.99 5.80 -36.99 8 -11 2.40 -27.79 6 -37.19 8.20 -10 2.20 -24.79 3.80 -34.99 3.80 l-17.80 0 -0.60 -8.40 c-1 -13.80 -6.40 -37.79 -11.40 -49.99 l-4.60 -11.60 15.80 0 15.80 0 4.20 8.40 c6.60 13 13.20 31.79 14.60 42.19 1.60 11.20 -2.20 10.80 35.19 2.20 19.80 -4.60 29.99 -7 73.58 -16.80 9.60 -2 28.59 -6.20 42.39 -9 36.79 -7.80 60.98 -12.80 79.98 -17 29.59 -6.40 161.76 -31.99 217.95 -41.99 53.79 -9.80 65.38 -11.80 71.98 -13 131.57 -22.39 260.14 -42.39 346.91 -53.99 20.99 -2.80 47.39 -6.40 58.99 -8 33.39 -4.60 146.16 -18.60 202.95 -24.99 129.17 -14.40 338.72 -32.59 439.89 -37.99 19.80 -1 53.19 -2.80 73.98 -4 20.99 -1 50.39 -2.40 65.58 -3.20 l27.59 -1.20 28.19 -36.39 28.39 -36.39 16 2.40 c9 1.40 27.39 4 41.19 5.80 36.99 5 32.99 2.20 45.99 33.19 l11 26.79 106.97 1.20 c113.57 1.40 169.96 3.60 256.94 10 231.94 17 401.30 55.99 483.48 111.37 29.39 20 49.79 45.59 56.59 71.18 16.20 60.39 -41.59 132.97 -165.96 208.95 -45.19 27.59 -100.98 56.59 -168.16 87.38 -19.80 9 -35.99 17.40 -35.99 18.60 0 1 12.60 20.59 27.99 43.19 15.40 22.59 51.59 75.98 80.58 118.57 28.99 42.59 53.59 77.78 54.59 77.98 1 0.40 1.80 -0.60 1.80 -2.40 0 -6.80 6 -2.60 14.20 10.20 l8.80 13.40 0.60 -142.16 c0.40 -139.97 0.40 -142.16 4.40 -143.16 3 -0.80 4 -2.80 4 -8.20 l0 -7.20 83.98 0 83.98 0 0 292.93 0 292.93 -12.80 0 c-14.60 0 -19.20 1.20 -19.20 5.20 0 2.40 -10.20 2.80 -61.38 2.80 -33.99 0 -66.18 0.60 -71.78 1.20 l-10.20 1.20 -105.17 -154.36 -105.37 -154.56 0 20.59 c0 17 -0.40 20.20 -2.60 18.20 -1.60 -1.20 -3.40 -1.60 -4 -0.80 -0.80 0.60 -1.40 59.59 -1.40 130.97 l0 129.57 -14.20 0 c-12.40 0 -14.20 0.40 -15.20 4 -1 4 -2.80 4 -73.78 4 l-72.78 0 0 -232.94 c0 -128.17 -0.40 -232.94 -0.80 -232.94 -0.40 0 -4.60 1.40 -9.20 3 -10.60 3.80 -12 3.80 -12 0.20 0 -1.60 -0.80 -3.40 -1.80 -4 -1 -0.60 -20.20 5 -42.39 12.60 -61.98 20.99 -184.15 59.19 -202.75 63.58 -2.20 0.60 -9.40 2.60 -16 4.60 -6.60 2 -25.39 7.40 -41.99 12 -16.40 4.60 -37.59 10.40 -46.99 13 -9.40 2.60 -26.19 7.20 -37.39 10.20 -30.39 8.20 -27.99 10.80 10.40 10.80 l30.99 0 0 123.77 0 123.77 -6.40 4.80 c-14 10.60 -67.98 41.79 -97.58 56.19 -77.58 37.79 -100.58 42.59 -197.35 40.79 -58.59 -1 -73.38 -2.60 -110.37 -12.60 -82.98 -22.39 -143.36 -79.98 -173.96 -166.16 -4.20 -11.80 -8.80 -26.79 -10.20 -33.19 l-2.40 -11.40 -12.80 1.20 c-11 1.20 -12.80 1 -12.80 -2 0 -1.80 -1 -3.20 -2.20 -3.20 -5 0 -58.99 10.20 -63.18 12 -4.20 1.80 -3.80 3.20 18.60 62.38 12.80 33.39 28.79 75.98 35.59 94.58 7 18.80 13.40 35.59 14.20 37.59 1.20 3 -0.20 3.40 -15.80 3.40 -15.80 0 -17.20 0.40 -17.20 4 0 4 -1 4 -80.18 3.60 l-80.18 -0.60 -14.40 -46.99 -14.20 -46.99 -98.58 -0.60 c-84.58 -0.40 -98.38 0 -98.38 2.40 0 1.60 -2 3.20 -4.40 3.60 -6 0.80 -7.80 4.80 -19.80 46.19 l-10.60 35.39 -12.40 0 c-10.60 0 -13 0.60 -14.80 4 -2 3.80 -4.20 4 -82.98 4 l-80.98 0 0 -5.40 c0 -2.80 8.60 -27.99 19 -55.59 10.40 -27.79 19 -50.99 19 -51.79 0 -0.60 -3.20 -1.20 -7.20 -1.20 -5.60 0 -7 -0.60 -6 -3 1.40 -3.80 2.40 -3.80 -35.59 0.40 -27.19 3 -31.99 4 -34.39 7.60 -1.60 2.20 -6.60 9.80 -11.20 17 -10 15.60 -34.39 40.19 -49.79 50.39 -17.60 11.60 -69.78 36.99 -90.18 43.99 l-18.60 6.20 -62.98 0.60 c-34.59 0.20 -69.78 -0.40 -77.98 -1.40z m1385.66 -135.97 c9.40 -2.20 23.79 -7.20 31.99 -11.40 12.40 -6 15.20 -8.40 15.60 -12.60 0.40 -4 2.60 -6.20 8.40 -8.80 14.40 -6.40 16 -9.20 16 -26.59 0 -8.40 -0.60 -17.40 -1.20 -19.80 l-1.20 -4.60 -60.39 -0.40 -60.19 -0.60 -0.60 -33.79 -0.40 -33.59 -5.20 1.20 c-14.40 3.60 -16.80 3.80 -16.80 0.60 0 -6.60 0.20 -6.60 -72.98 10.60 -8.80 2 -19.80 4.20 -24.39 5 -4.80 0.80 -8.60 2.40 -8.80 3.60 -1.20 12.60 7 46.59 15.40 65.18 15.40 33.39 42.99 56.99 77.38 66.38 23.99 6.40 58.39 6.20 87.38 -0.40z m-2539.37 -201.75 c0 -144.56 -0.60 -191.95 -2.40 -191.95 -2.60 0 -55.39 27.39 -79.58 41.39 -131.97 76.38 -190.55 147.56 -170.16 206.95 5.80 16.80 9.20 22.39 22.59 36.79 34.39 36.79 91.78 63.78 190.55 89.98 17.60 4.60 33.59 8.60 35.59 8.60 3.20 0.20 3.40 -10.20 3.40 -191.75z"/>
  <path d="M645.84 1180.71 c0 -0.60 3 -3.80 6.80 -7 16.60 -14.60 21.39 -47.19 10.20 -67.58 -14.80 -27.19 -36.59 -34.19 -105.57 -34.39 -31.59 0 -37.79 0.40 -38.59 3 -2.60 6.60 -4.80 2.40 -4.80 -9 l0 -12 57.79 0 c83.78 0 102.17 3.40 118.97 22.19 5 5.60 10 13.40 11.20 17.40 3.20 11.80 2.40 42.39 -1.40 53.39 -4.40 13 -18.60 27.19 -31.59 31.59 -9.20 3.20 -22.99 4.60 -22.99 2.40z"/>
  <path d="M3138.82 1160.51 c-1 -0.80 -1.60 -27.39 -1.60 -59.19 0 -56.19 0 -57.59 4 -57.59 3.20 0 4 -1.40 4 -7 l0 -7 117.97 0 117.97 0 0 60.98 0 60.98 -8 0 c-6.60 0 -8 0.60 -8 4 0 4 -1.40 4 -102.37 4 -56.39 0 -106.97 0.60 -112.57 1.20 -5.40 0.60 -10.60 0.60 -11.40 -0.40z"/>
  <path d="M2165.46 1086.53 c0 -0.80 1.40 -2.40 3.40 -3.80 3 -2.20 1.20 -9.20 -19.20 -75.18 -12.20 -39.99 -22.19 -73.78 -22.19 -75.18 0 -3.80 -4 -5.20 -7 -2.60 -5.20 4.40 -3.60 -6.80 5.40 -36.39 l8.20 -27.79 7 0.60 7 0.60 31.59 102.97 c17.40 56.59 31.79 106.37 31.79 110.57 l0 7.40 -22.99 0 c-12.60 0 -22.99 -0.60 -22.99 -1.20z"/>
  <path d="M627.84 947.97 c0 -1 1.40 -2.40 3 -3 1.80 -0.60 6 -7 9.40 -14.40 5.60 -12 6 -14.40 5.20 -28.59 -1 -18 -6.60 -29.79 -18.80 -39.79 -13 -10.80 -23.59 -13 -67.18 -14 -34.99 -0.80 -39.79 -0.40 -40.79 2.40 -2.60 6.80 -4.80 2.60 -4.80 -9 l0 -12.20 61.58 0.80 c58.39 0.80 61.98 1 72.98 5.40 13.20 5.20 22.79 13.80 28.39 25.39 4.60 9.60 5.40 45.39 1.20 57.59 -3.60 10.20 -15.20 22.99 -25.19 27.39 -8.20 3.80 -24.99 5.20 -24.99 2z"/>
  <path d="M2862.69 903.78 c-3.20 -6.80 -10.80 -17.60 -17.40 -24.79 -21.39 -22.79 -49.19 -32.39 -87.98 -30.39 -11.60 0.60 -23.39 1.60 -26.39 2.40 -4.80 1 -5.60 0.60 -5.60 -2.80 0 -8.60 37.39 -18.40 69.98 -18.40 50.59 0 84.78 17.80 101.97 52.79 3.60 7.20 7.80 13.20 9.20 13.20 1.40 0 14.60 -2.20 29.19 -4.80 82.98 -15 95.58 -17.20 101.17 -17.20 3.60 0 6.40 1 6.40 2 0 1.20 -1 2 -2.20 2 -1.20 0 -1.80 1.80 -1.20 4 0.60 2.20 0.20 4 -0.60 4 -1.80 0 -46.79 8 -73.38 13 -9 1.80 -23.79 4.40 -32.99 6 -9.20 1.60 -26.99 4.60 -39.59 6.80 -12.60 2.40 -23.39 4.20 -23.99 4.20 -0.60 0 -3.60 -5.40 -6.60 -12z"/>
  <path d="M1570.01 893.58 c-10.20 -43.79 -45.39 -68.18 -94.38 -65.38 -13.20 0.60 -14 0.40 -14 -3.60 0 -12 48.79 -19 82.18 -12 17.80 3.80 31.19 11 41.19 21.79 10.20 11 15.20 20.79 19.60 37.59 1.80 7 3.60 13 3.80 13.20 0.40 0.40 20.79 -0.60 45.39 -2.20 88.78 -5.80 89.78 -5.80 89.78 -3.40 0 1.20 -1 2.20 -2.20 2.20 -1.40 0 -2 2.40 -1.40 5.80 0.80 6 0.80 6 -11.20 7 -6.80 0.60 -22.99 1.60 -36.19 2.20 -13.20 0.80 -43.79 2.60 -67.78 4.20 -24.19 1.60 -45.79 2.80 -48.19 2.80 -3.60 0 -4.80 -1.80 -6.60 -10.20z"/>
  <path d="M465.88 719.22 c0 -1.60 3.20 -3.60 7 -4.80 5.80 -1.80 7 -1.80 7 0.60 0 1.60 1 2.80 2 2.80 1.20 0 2 1 2 2 0 1.20 -4 2 -9 2 -6.20 0 -9 -0.80 -9 -2.60z"/>
  <path d="M487.08 709.02 c10 -4.40 16.40 -5.40 7.80 -1.40 -4.40 2.20 -9.40 4 -11 4 -1.60 0 -0.20 -1.20 3.20 -2.60z"/>
  <path d="M505.87 702.23 c1.60 -1 5.20 -2.60 8 -3.20 3.40 -1 4 -0.80 2 0.40 -1.60 1 -5.20 2.60 -8 3.20 -3.40 1 -4 0.80 -2 -0.40z"/>
  <path d="M529.87 693.03 c2.80 -1.80 6.40 -3 8 -3 2.60 0 2.60 0.20 0 1.60 -1.60 1 -5.20 2.40 -8 3 l-5 1.40 5 -3z"/>
  <path d="M548.86 686.03 c4.40 -2.20 9.40 -3.80 11 -3.80 3.40 0 -6.40 4.40 -14 6.40 -2.80 0.60 -1.40 -0.60 3 -2.60z"/>
  <path d="M563.86 681.23 c0 -1.20 5.60 -3.20 70.98 -25.39 77.58 -26.19 151.96 -49.59 227.94 -71.58 29.79 -8.60 39.79 -12.40 39.59 -14.40 -0.40 -1.60 -2.20 -9.20 -4.40 -17 -2 -7.60 -4.40 -18.80 -5.20 -24.39 l-1.40 -10.60 19.20 0 19.20 0 0 5.80 c0 9.20 5.80 39.59 9.80 51.39 l3.60 10.80 -16.40 0 c-14.40 0 -16.80 -0.60 -19.20 -4 -2.80 -4 -3 -4 -31.79 4 -85.18 23.99 -95.38 26.99 -176.96 51.99 -28.79 8.80 -58.39 18.60 -91.98 29.99 -42.99 14.80 -42.99 14.80 -42.99 13.40z"/>
  <path d="M1022.75 662.64 c-6.60 -5 -16.40 -13.20 -21.79 -18.40 -9.40 -9.20 -29.19 -35.39 -29.19 -38.79 0 -0.80 8.40 -1.60 18.60 -1.60 l18.40 0.20 6.60 20.39 c3.80 11.20 9.60 26.39 13.20 33.99 3.60 7.40 6.40 13.40 6.40 13.40 -0.20 0 -5.60 -4.20 -12.20 -9.20z"/>
  <path d="M1048.74 657.84 c-7.20 -14.40 -15.40 -34.59 -18.80 -46.99 l-1.80 -7 29.79 0 c26.99 0 29.79 0.40 29.79 3.60 0 4.80 -9 32.39 -16.20 49.79 -5.20 12.40 -7 14.60 -11 14.60 -3.80 0 -6 -2.60 -11.80 -14z"/>
  <path d="M1088.53 664.84 c3.80 -10 13.20 -38.99 16.20 -49.39 l3.20 -11.60 16.80 0 c9.40 0 17 0.60 17 1.20 0 2.60 -18.60 29.59 -26.39 37.99 -12.40 13.40 -28.79 26.79 -26.79 21.79z"/>
  <path d="M977.76 653.44 c-20.79 -11.60 -41.39 -28.99 -52.39 -43.99 l-3.80 -5.60 14.60 0 14.60 0.20 9.80 16 c5.40 8.80 14.60 21.39 20.59 27.99 6 6.40 10.20 11.80 9.40 11.80 -1 -0.20 -6.80 -3 -12.80 -6.40z"/>
  <path d="M1137.12 643.64 c5.60 -7 13.40 -18.80 17.60 -26.19 l7.40 -13.60 12.80 0 c7 0 12.80 0.60 12.80 1.20 0 0.60 -3.80 5.60 -8.40 11.20 -9.80 11.40 -27.79 26.19 -42.39 34.59 l-9.80 5.80 10 -13z"/>
  <path d="M959.96 580.66 c-4.60 -10 -12.20 -43.19 -12.20 -52.99 l0 -9.80 23.99 0 23.99 0 0 11.60 c0 9.80 3.60 36.59 7 51.99 1 4.40 0.80 4.40 -19.60 4.40 -20.39 0 -20.79 0 -23.19 -5.20z"/>
  <path d="M1019.15 566.46 c-1.80 -10.80 -4 -26.19 -4.60 -33.99 l-1.40 -14.60 42.59 0 42.59 0 -1.20 23.59 c-0.80 12.80 -2 28.19 -2.60 33.99 l-1.40 10.40 -35.39 0 -35.39 0 -3.20 -19.40z"/>
  <path d="M1112.52 579.46 c0.60 -3.60 1.80 -19 2.40 -33.99 l1.40 -27.59 23.59 0 23.79 0 0 6.60 c0 9.40 -3.20 26.99 -8.20 45.39 l-4.20 16 -20 0 -20 0 1.20 -6.40z"/>
  <path d="M1170.71 582.46 c2.60 -6.80 8.80 -37.79 10.20 -50.99 l1.40 -13.60 17.60 0 c17.20 0 17.80 0.20 17.80 4.60 0 9.40 -7.80 40.79 -12.60 51.99 l-5.20 11.40 -15.40 0 c-13.60 0 -15 -0.40 -13.80 -3.40z"/>
  <path d="M3272.39 509.87 c-9.80 -7.60 -18.20 -14.40 -18.60 -14.80 -1 -1 19.80 -29.19 21.39 -29.19 0.80 0 34.19 25.79 37.79 29.19 0.80 0.80 -20.20 28.79 -21.79 28.79 -0.60 0 -9 -6.20 -18.80 -14z"/>
  <path d="M892.58 497.48 c0.60 -2.60 2 -10 3.20 -16.60 2.60 -13.20 7.80 -28.99 14 -40.99 l4 -8 15 0 c8.20 0 15 0.20 15 0.60 0 0.20 -1.80 5.60 -4 11.80 -4.20 12 -10 42.19 -10 51.79 l0 5.80 -19 0 c-18.80 0 -19 0 -18.20 -4.40z"/>
  <path d="M948.37 487.28 c0.80 -7.80 2.20 -17.20 3.20 -20.39 1 -3.40 3.80 -12.60 6.20 -20.39 l4.60 -14.60 19.60 0 c11 0 19.80 0.20 19.80 0.60 0 0.20 -1.40 7.60 -3 16.40 -1.60 8.80 -2.80 24.39 -3 34.59 l0 18.40 -24.19 0 -24.39 0 1.20 -14.60z"/>
  <path d="M1014.35 480.88 c0.80 -11.60 2.40 -27.19 3.60 -34.99 l2.40 -14 33.39 0 33.39 0 3.40 15.60 c2.80 13.40 7.20 44.39 7.20 51.79 0 2 -9.40 2.60 -42.39 2.60 l-42.19 0 1.20 -20.99z"/>
  <path d="M1114.92 487.08 c-1.20 -13.20 -5.20 -37.59 -8.20 -50.79 -1.20 -4.60 -1 -4.60 19.20 -4 l20.20 0.60 3.80 9.60 c4.60 11.60 11 36.79 12.80 49.99 l1.20 9.40 -23.79 0 -23.79 0 -1.40 -14.80z"/>
  <path d="M3216.60 466.68 c-9.60 -7.40 -17.40 -14 -17.40 -14.80 0 -1.20 16 -22.59 20 -26.79 1.20 -1.20 8 3 17.20 10 8.60 6.40 16.80 12.80 18.40 14 2.60 1.80 1.20 4.40 -8.40 16.60 -6.20 7.80 -11.60 14.20 -11.80 14.20 -0.40 0 -8.40 -6 -18 -13.20z"/>
  <path d="M3312.18 459.89 c-9.80 -7.60 -18.20 -14.80 -18.60 -15.80 -0.60 -2 19.40 -28.19 21.39 -28.19 1 0 33.99 25.39 37.79 28.99 0.60 0.60 -21.39 28.99 -22.39 28.99 0 0 -8.20 -6.20 -18.20 -14z"/>
  <path d="M3161.62 423.70 l-18.20 -14.40 11.20 -13.60 c6 -7.60 11.80 -13.80 12.60 -13.80 2.80 0 34.99 26.39 34.39 28.39 -0.40 1.60 -20.59 27.59 -21.39 27.59 -0.20 0 -8.40 -6.40 -18.60 -14.20z"/>
  <path d="M3255.59 415.70 l-18.20 -14.20 11.20 -14.40 c6.20 -7.80 11.40 -14.40 11.40 -14.40 0.20 -0.20 8.40 6.20 18.60 14 l18.20 14.60 -11 13.80 c-6 7.60 -11.20 14 -11.40 14.20 -0.40 0.40 -8.80 -5.80 -18.80 -13.60z"/>
  <path d="M931.77 408.10 c7.20 -9.20 26.79 -24.99 40.99 -33.39 l10 -5.80 -9.20 12 c-5 6.60 -12.20 17.20 -15.80 23.59 l-6.40 11.40 -13 0 -13 0 6.40 -7.80z"/>
  <path d="M971.76 414.30 c0 -1 5.20 -8.80 11.80 -17.60 12 -16.20 21.39 -25.99 34.99 -35.99 7.80 -5.60 7.80 -5.60 5.20 -0.80 -3.20 5.80 -15 40.39 -17 49.59 l-1.40 6.40 -16.80 0 c-9.20 0 -16.80 -0.80 -16.80 -1.60z"/>
  <path d="M1024.75 412.50 c0.80 -2 3 -9 5 -15.60 2 -6.60 6.40 -18.80 9.80 -26.99 3.40 -8.20 6.20 -15.20 6.20 -15.40 0 -0.40 2.60 -0.60 5.60 -0.60 4.40 0 6.40 1.40 8.40 5.60 6.80 14.80 19.60 45.99 20.79 50.99 l1.20 5.40 -29.19 0 c-26.99 0 -29.19 -0.20 -27.79 -3.40z"/>
  <path d="M1100.73 413.50 c-8.80 -24.99 -12.60 -34.79 -18 -45.99 l-6.40 -13.40 11.80 8.20 c13.20 9.20 33.79 30.39 43.39 44.39 l6.40 9.20 -18.20 0 c-12.60 0 -18.40 -0.80 -19 -2.40z"/>
  <path d="M1153.31 409.10 c-1.80 -3.60 -9.20 -14.40 -16.60 -23.99 l-13.20 -17.40 9.80 5 c16.20 8.20 43.59 30.59 48.59 39.79 1.80 3 0.60 3.40 -11.80 3.40 -13.60 0 -13.60 0 -16.80 -6.80z"/>
  <path d="M3108.03 381.71 c-9.80 -7.80 -18 -15 -18.40 -15.80 -0.80 -2 19.20 -27.99 21.19 -27.99 2 0 35.79 26.59 36.39 28.59 0.40 1.60 -19.60 29.39 -20.99 29.39 -0.20 0 -8.40 -6.40 -18.20 -14.20z"/>
  <path d="M3202.01 373.91 c-9.80 -7.80 -17.60 -14.60 -17.40 -15.60 0.20 -0.80 5.20 -7.40 10.80 -14.80 l10.40 -13.20 18.60 14 18.40 14.20 -10.20 13.20 c-5.60 7.20 -10.60 13.80 -11.40 14.80 -0.60 0.80 -9.20 -4.80 -19.20 -12.60z"/>
  <path d="M3145.42 329.72 l-18 -14.20 11.20 -14.60 11.20 -14.80 14.20 11.20 c7.80 6.20 16.60 13 19.60 15.20 l5.40 4 -11.20 13.60 c-6 7.60 -11.80 13.80 -12.60 13.80 -0.80 0 -9.80 -6.40 -19.80 -14.20z"/>
  <path d="M2917.68 232.94 c-10.20 -8 -18.80 -15 -19 -15.40 -0.20 -0.40 4.60 -7 10.80 -14.80 l11.20 -14.40 19.20 15 19.20 15 -9.40 12.20 c-5.20 6.80 -10.20 13.40 -11.40 14.80 -1.60 1.80 -6.60 -1.20 -20.59 -12.40z"/>
  <path d="M2862.09 189.35 l-18.40 -14.20 11.20 -14.60 c6.80 -8.80 12 -13.80 13.20 -12.80 1.20 0.80 9.60 7.20 18.60 14 l16.60 12.60 -10.40 13.40 c-5.60 7.20 -10.80 13.80 -11.40 14.60 -0.60 0.80 -9.40 -5 -19.40 -13z"/>
  <path d="M2955.87 181.56 l-18.40 -14.40 6 -8 c3.20 -4.60 8.40 -11.20 11.40 -14.60 l5.40 -6.60 18 14.20 c10 7.80 17.80 15.40 17.80 16.80 -0.40 3 -18.60 26.99 -20.59 26.99 -0.60 0 -9.40 -6.40 -19.60 -14.40z"/>
  <path d="M2807.31 146.76 c-9.40 -7.40 -16.80 -14.20 -16.40 -15.40 0.40 -1.20 5.20 -7.80 10.60 -14.80 6.60 -8.20 11 -12 12.60 -11.20 7.40 4.60 33.19 25.79 33.19 27.19 0 2.40 -19.80 27.39 -21.59 27.39 -0.80 0 -9 -6 -18.40 -13.20z"/>
  <path d="M2901.08 138.77 c-9.20 -7.40 -16.60 -14.40 -16.20 -15.40 1.60 -5.60 20.99 -27.19 22.99 -25.99 8.80 5.20 32.39 25.79 32.19 27.79 -0.40 3 -18.80 26.79 -20.79 26.79 -0.80 0 -9 -6 -18.20 -13.20z"/>
  <path d="M2752.32 103.77 c-10 -7.60 -18.20 -14.80 -18.60 -15.80 -1 -3 20 -28.19 22.59 -27.19 3.80 1.40 36.99 27.79 36.99 29.39 0 1.60 -19.80 26.59 -21.59 27.39 -0.80 0.20 -9.60 -6 -19.40 -13.80z"/>
  <path d="M2846.90 96.58 c-9 -7.20 -17 -13.60 -17.40 -13.80 -0.80 -0.80 20.39 -28.59 21.99 -28.79 1 0 28.79 20.99 34.59 26.19 1.60 1.40 -18.40 29.79 -20.99 29.79 -0.80 0 -9 -6 -18.20 -13.40z"/>
  <path d="M2791.51 53.19 c-10.20 -8 -18.60 -15.40 -18.40 -16.40 0 -1 4.80 -7.80 10.40 -15.20 l10.40 -13.20 17.20 13 c9.40 7.40 18.40 14.40 20 15.80 2.20 2 0.80 4.80 -8.60 16.60 -6.20 7.80 -11.60 14.20 -11.80 14.20 -0.20 0 -8.80 -6.60 -19.20 -14.80z"/>
 </g>
 <g fill="#018dcd">
  <path d="M1436.64 1326.67 c-47.79 -5 -83.38 -15 -114.57 -32.19 -8.80 -4.80 -19.80 -13.80 -32.39 -26.59 l-19 -19.20 6 -1.20 c3.40 -0.80 12.40 -1.40 20 -1.60 l14.20 -0.20 9.80 10.20 c24.79 25.39 60.59 42.59 107.57 51.59 36.39 7 62.58 8.80 115.97 7.60 43.59 -1 53.59 -1.80 73.38 -6 12.60 -2.80 24.79 -5.60 26.99 -6.40 2.40 -0.60 1.80 0 -1.20 1.80 -15.60 9.20 -58.39 19.60 -94.58 22.99 -28.19 2.80 -81.58 2.40 -112.17 -0.80z"/>
  <path d="M2707.33 1327.47 c-115.57 -11.60 -192.15 -66.58 -231.94 -166.56 -5.60 -14 -18 -58.39 -18 -64.38 0 -1.80 20.39 -6.80 28.39 -6.80 2.20 0 3.80 3.80 5.60 12.40 1.20 6.80 5.80 22.19 10 33.99 30.79 86.38 91.18 143.96 174.16 166.36 40.59 10.80 52.39 12 117.77 12.20 70.78 0 80.38 -1 140.97 -16.20 8.60 -2.20 -2.40 2.80 -19.20 8.80 -25.39 9 -60.59 16.20 -93.58 19.40 -31.59 3.20 -86.98 3.40 -114.17 0.80z"/>
  <path d="M305.92 1270.49 l0 -49.19 6.60 1.20 c3.40 0.80 10.20 1.80 15 2.60 l8.40 1.20 0 39.59 0 39.79 167.96 0 c156.36 0 170.16 -0.20 203.35 -4.20 19.60 -2.20 39.59 -4.80 44.59 -6 5 -1 11.20 -2.20 14 -2.80 l5 -1 -5 3 c-14.80 8.60 -44.79 15 -96.98 20.99 -33.19 3.60 -48.59 4 -199.35 4 l-163.56 0 0 -49.19z"/>
  <path d="M949.76 1289.68 l0 -29.99 15 0 15 0 0 22.99 0 22.99 74.98 0 74.98 0 0 7 0 7 -89.98 0 -89.98 0 0 -29.99z"/>
  <path d="M1794.56 1316.27 c1.40 -3.80 3.40 -8.80 27.79 -74.58 8.40 -22.59 16.20 -42.79 17 -45.19 1.40 -3.40 4.20 -4.40 13.40 -5.60 6.20 -0.60 11.60 -1 12 -0.80 0.20 0.40 -9.20 26.59 -20.99 58.19 l-21.59 57.39 78.58 0 c43.39 0 78.78 0.40 78.78 0.80 0 0.20 -1 3.40 -2.20 7 l-2.20 6.20 -90.98 0 c-85.98 0 -90.98 -0.20 -89.58 -3.40z"/>
  <path d="M2238.45 1303.28 c-2.60 -9.20 -9.20 -30.99 -14.60 -48.59 l-9.80 -31.99 -90.38 -0.60 c-81.38 -0.40 -90.38 -0.80 -89.38 -3.60 0.60 -1.80 1.20 -4.40 1.20 -6 0 -2.40 15 -2.80 104.37 -2.40 l104.57 0.60 14.20 46.99 14.40 46.99 77.18 0.60 c59.79 0.40 77.18 1 77.18 3 0 1.20 0.60 4.40 1.20 7 l1.20 4.40 -93.18 0 -92.98 0 -5.20 -16.40z"/>
  <path d="M3429.15 1082.13 l0 -237.54 11.60 -3.60 c6.20 -2 12.60 -4.20 14 -4.60 1.80 -0.80 2.40 46.79 2.40 234.14 l0 235.14 69.98 0 69.98 0 0 7 0 7 -83.98 0 -83.98 0 0 -237.54z"/>
  <path d="M3792.06 1278.48 c-15.40 -22.59 -33.39 -48.79 -39.99 -58.39 -6.60 -9.60 -23.39 -34.19 -37.39 -54.59 -13.80 -20.39 -38.79 -56.99 -55.39 -81.38 l-30.39 -44.19 0.60 -28.39 0.60 -28.59 109.97 161.56 110.17 161.36 69.38 -0.20 69.38 0 0 7 0 7 -84.58 0 -84.58 0 -27.79 -41.19z"/>
  <path d="M797.80 1220.30 c-90.78 -2 -200.15 -8.20 -275.93 -15.80 -60.19 -6 -79.98 -8.40 -140.37 -18 l-45.59 -7.40 0 -221.35 c0 -121.77 0.60 -225.54 1.20 -230.54 l1.40 -9.20 66.18 -0.60 c36.39 -0.40 120.57 0 187.15 0.60 103.57 0.80 123.37 1.60 137.37 4.40 36.79 7.80 62.18 21.19 84.58 44.79 25.59 26.79 37.99 57.79 37.99 95.58 0 56.59 -28.79 100.38 -79.98 121.77 -7.60 3.40 -14 7 -14 8.20 0 1.40 5.20 3.40 11.60 4.80 18.40 4 53.59 22.19 67.78 34.99 31.59 28.79 46.59 74.78 40.99 124.97 -2.40 21.19 -5.40 31.59 -14 51.59 l-5.40 12.40 -20 -0.20 c-11 -0.20 -29.39 -0.60 -40.99 -1z m-140.97 -45.59 c27.79 -10.20 40.99 -28.19 40.99 -55.79 0 -17.40 -2.80 -25.59 -13.20 -36.99 -16.60 -18.40 -35.79 -22.19 -112.57 -22.19 l-51.59 0 -1.40 10.60 c-1.60 14.60 -1.60 108.37 0.20 110.17 1 0.80 28.59 1.20 61.58 0.80 l59.99 -0.60 16 -6z m-18.20 -231.34 c25.19 -9.60 35.79 -24.99 35.79 -52.59 0 -25.59 -9.60 -40.39 -31.99 -49.19 -10.80 -4.20 -15 -4.60 -66.78 -5.40 l-55.19 -0.80 -1.20 10.80 c-1.80 14.80 -1.80 100.58 0 102.37 1 0.80 24.99 1.20 53.59 0.60 49.79 -0.80 52.59 -1 65.78 -5.80z"/>
  <path d="M979.76 979.36 c0 -133.77 0.60 -247.14 1.20 -252.34 l1.40 -9.20 89.58 0 89.78 0 0 249.54 0 249.54 -4.40 0 c-9 0 -113.17 2.80 -144.96 4 l-32.59 1.20 0 -242.74z"/>
  <path d="M1284.88 1206.70 c-4.20 -6.60 -16.60 -38.99 -20.20 -52.99 -1.80 -7.20 -3.80 -19 -4.20 -26.39 -0.80 -12.80 -0.60 -13.60 3.60 -14.40 2.60 -0.60 30.19 -2.60 61.58 -4.20 31.39 -1.80 67.18 -4 79.78 -5.20 24.99 -2 26.19 -1.60 26.19 8.60 0 8.60 9.80 35.39 16.80 46.39 8.80 13.80 22.99 26.39 36.99 32.99 l11.80 5.60 -34.39 2.40 c-43.19 3 -148.36 9.80 -163.76 10.60 -9.80 0.60 -12 0 -14.20 -3.40z"/>
  <path d="M1597 1179.91 c12.40 -12.20 17.20 -21.79 18.20 -37.39 0.60 -9.20 -0.20 -14.40 -3.20 -21.19 -12.40 -27.99 -34.79 -38.99 -124.37 -60.59 -57.79 -14 -109.37 -34.39 -138.77 -54.59 -32.79 -22.59 -54.99 -52.99 -64.58 -88.38 -4.80 -17.80 -4.80 -58.19 0 -75.98 9.60 -35.39 32.19 -68.98 60.39 -88.98 13.80 -9.80 45.59 -24.59 65.98 -30.59 40.79 -12.20 107.37 -17.20 163.96 -12.20 101.57 8.60 161.56 47.59 185.75 120.17 4.20 12.40 11.20 42.39 11.20 47.79 0 0.60 -5.20 1.80 -11.40 2.60 -6.40 0.60 -19.20 2.20 -28.59 3.20 -15.40 1.80 -111.57 8 -124.17 8 -4.80 0 -5.60 -1.20 -8.60 -13.20 -9.20 -36.39 -30.99 -55.79 -68.98 -61.18 -42.39 -6.20 -79.18 11 -81.78 38.19 -1.20 13.60 0.40 19 9 28.39 11.60 12.80 24.59 18.20 67.98 27.79 159.76 35.79 218.35 65.58 249.14 126.97 12.20 24.39 16.20 42.19 16.20 72.98 0.20 24.39 -2.80 49.59 -6.60 55.59 -0.60 1.20 -9.40 3.20 -19.20 4.20 -26.79 3.20 -112.37 11.60 -140.97 14.20 -13.80 1.20 -27.59 2.60 -30.79 3 -5.60 1 -5.40 0.60 4.20 -8.80z"/>
  <path d="M3125.23 1105.73 l0 -61.98 9 0 9 0 0.40 54.99 0.60 55.19 110.57 -0.20 110.37 0 0 7 0 7 -119.97 0 -119.97 0 0 -61.98z"/>
  <path d="M2892.88 1135.32 l-0.60 -28.59 -60.59 -0.60 -60.39 -0.40 0.40 -38.39 0.60 -38.39 13.40 -3.40 13.60 -3.40 0.40 35.39 0.60 35.19 61.18 1 61.18 1 0.40 25.19 c0.60 28.99 0.80 28.39 -18 37.79 l-11.60 6 -0.60 -28.39z"/>
  <path d="M1877.54 1158.51 c0 -0.40 11.80 -31.99 26.19 -70.18 14.40 -38.19 35.59 -94.78 47.19 -125.57 11.40 -30.79 22.59 -60.39 24.79 -65.98 2.20 -5.40 16.80 -44.39 32.59 -86.38 15.80 -42.19 29.59 -77.78 30.79 -79.18 1.20 -1.20 2.80 -5 3.40 -8 l1.40 -5.40 98.98 0.40 98.98 0.60 42.79 113.97 c23.39 62.78 44.39 118.57 46.59 123.97 2.20 5.60 12.20 31.99 22.19 58.99 10 26.99 20 53.39 22.19 58.59 2.20 5.40 3.60 10.20 3 11 -4.40 4.20 -273.93 44.79 -436.09 65.38 -13.20 1.80 -33.19 4.20 -44.39 5.80 -11.40 1.40 -20.59 2.20 -20.59 2z m327.32 -77.38 c1 -1.20 -61.18 -205.55 -63.38 -207.95 -0.80 -0.80 -4.80 10 -9 23.99 -4.20 14 -8.80 27.79 -10.20 30.59 -4.60 8.40 -46.99 150.76 -45.79 153.76 1 2.40 10.80 2.60 64.18 1.60 34.79 -0.60 63.58 -1.60 64.18 -2z"/>
  <path d="M2482.79 1051.34 c-9 -114.57 21.19 -208.55 86.58 -270.13 53.19 -49.99 126.57 -73.18 231.94 -73.38 27.39 0 70.38 2.80 93.98 6.20 82.78 11.60 137.77 55.19 168.56 133.77 9.40 24.19 9.80 23.19 -6 25.99 -7.40 1.40 -15 3.20 -16.80 4.20 -1.60 0.80 -18.80 4.40 -37.99 7.80 -19.20 3.60 -49.19 9 -66.78 12.20 -17.60 3.20 -33.39 5.80 -34.99 5.80 -1.80 0 -5.80 -6 -9.60 -14 -16 -34.19 -51.39 -53.99 -96.38 -53.99 -18.80 0 -36.39 3.80 -58.19 12.20 -14.80 5.80 -18.60 8.40 -31.79 21.59 -17.80 17.80 -27.19 35.19 -34.99 64.18 -5.60 21.39 -10.20 67.78 -8.40 87.18 l1.20 12.20 -46.39 9.40 c-25.59 5 -63.38 12.40 -84.38 16.20 -20.79 3.80 -40.39 7.40 -43.19 8 -5.20 1.20 -5.20 1.20 -6.40 -15.40z"/>
  <path d="M3835.45 1020.15 l-14.40 -21.39 0 -132.57 0 -132.37 15 0 15 0 0 153.96 c0 84.78 -0.20 153.96 -0.60 153.96 -0.40 0 -7 -9.60 -15 -21.59z"/>
  <path d="M2799.31 998.35 c0 -3.20 0.60 -10.40 1.20 -16 l1.40 -10.60 69.18 0.20 69.18 0.20 -19 4.80 c-26.39 6.60 -116.77 26.79 -119.57 26.79 -1.40 0 -2.40 -2.40 -2.40 -5.40z"/>
  <path d="M3458.74 779.41 c0.40 -25.59 0.80 -49.99 1 -53.99 l0.40 -7.60 83.98 0 83.98 0.20 11.40 17 11.40 17.20 -12.40 5.40 c-23.39 10.60 -175.56 68.18 -180.16 68.18 0 0 0 -20.99 0.40 -46.39z"/>
 </g>
</svg>